<mxfile host="Electron" modified="2024-12-19T13:14:13.599Z" agent="Mozilla/5.0 (Windows NT 10.0; Win64; x64) AppleWebKit/537.36 (KHTML, like Gecko) draw.io/22.1.2 Chrome/114.0.5735.289 Electron/25.9.4 Safari/537.36" etag="LDKMqNmpQjYAAGU6sNlw" version="22.1.2" type="device">
  <diagram name="Wireframe" id="O_iBGpvAYk920_aTWW0I">
    <mxGraphModel dx="1434" dy="844" grid="1" gridSize="10" guides="1" tooltips="1" connect="1" arrows="1" fold="1" page="1" pageScale="1" pageWidth="3300" pageHeight="4681" math="0" shadow="0">
      <root>
        <mxCell id="0" />
        <mxCell id="1" parent="0" />
        <mxCell id="pR8gxtkdVTreqYLZGD9T-7" style="edgeStyle=orthogonalEdgeStyle;rounded=0;orthogonalLoop=1;jettySize=auto;html=1;exitX=0.5;exitY=1;exitDx=0;exitDy=0;entryX=0.5;entryY=0;entryDx=0;entryDy=0;" edge="1" parent="1" source="pR8gxtkdVTreqYLZGD9T-2" target="pR8gxtkdVTreqYLZGD9T-3">
          <mxGeometry relative="1" as="geometry" />
        </mxCell>
        <mxCell id="pR8gxtkdVTreqYLZGD9T-2" value="Начало" style="rounded=1;whiteSpace=wrap;html=1;arcSize=50;" vertex="1" parent="1">
          <mxGeometry x="600" y="200" width="240" height="40" as="geometry" />
        </mxCell>
        <mxCell id="pR8gxtkdVTreqYLZGD9T-8" style="edgeStyle=orthogonalEdgeStyle;rounded=0;orthogonalLoop=1;jettySize=auto;html=1;exitX=0.5;exitY=1;exitDx=0;exitDy=0;" edge="1" parent="1" source="pR8gxtkdVTreqYLZGD9T-3" target="pR8gxtkdVTreqYLZGD9T-5">
          <mxGeometry relative="1" as="geometry">
            <mxPoint x="720" y="380" as="targetPoint" />
          </mxGeometry>
        </mxCell>
        <mxCell id="pR8gxtkdVTreqYLZGD9T-3" value="Ввод input" style="shape=parallelogram;perimeter=parallelogramPerimeter;whiteSpace=wrap;html=1;fixedSize=1;" vertex="1" parent="1">
          <mxGeometry x="645" y="290" width="150" height="50" as="geometry" />
        </mxCell>
        <mxCell id="pR8gxtkdVTreqYLZGD9T-10" style="edgeStyle=orthogonalEdgeStyle;rounded=0;orthogonalLoop=1;jettySize=auto;html=1;exitX=0.5;exitY=1;exitDx=0;exitDy=0;exitPerimeter=0;entryX=0.5;entryY=0;entryDx=0;entryDy=0;" edge="1" parent="1" source="pR8gxtkdVTreqYLZGD9T-5" target="pR8gxtkdVTreqYLZGD9T-6">
          <mxGeometry relative="1" as="geometry" />
        </mxCell>
        <mxCell id="pR8gxtkdVTreqYLZGD9T-5" value="цикл 1&lt;br&gt;char c in input" style="strokeWidth=2;html=1;shape=mxgraph.flowchart.loop_limit;whiteSpace=wrap;" vertex="1" parent="1">
          <mxGeometry x="640" y="400" width="160" height="50" as="geometry" />
        </mxCell>
        <mxCell id="pR8gxtkdVTreqYLZGD9T-12" style="edgeStyle=orthogonalEdgeStyle;rounded=0;orthogonalLoop=1;jettySize=auto;html=1;exitX=0.5;exitY=1;exitDx=0;exitDy=0;entryX=0.5;entryY=0;entryDx=0;entryDy=0;" edge="1" parent="1" source="pR8gxtkdVTreqYLZGD9T-6" target="pR8gxtkdVTreqYLZGD9T-11">
          <mxGeometry relative="1" as="geometry" />
        </mxCell>
        <mxCell id="pR8gxtkdVTreqYLZGD9T-13" style="edgeStyle=orthogonalEdgeStyle;rounded=0;orthogonalLoop=1;jettySize=auto;html=1;exitX=1;exitY=0.5;exitDx=0;exitDy=0;" edge="1" parent="1" source="pR8gxtkdVTreqYLZGD9T-6">
          <mxGeometry relative="1" as="geometry">
            <mxPoint x="720" y="620" as="targetPoint" />
            <Array as="points">
              <mxPoint x="820" y="535" />
              <mxPoint x="820" y="620" />
            </Array>
          </mxGeometry>
        </mxCell>
        <mxCell id="pR8gxtkdVTreqYLZGD9T-6" value="Проверка значений на ввод латинских значений и цифр" style="rhombus;whiteSpace=wrap;html=1;" vertex="1" parent="1">
          <mxGeometry x="640" y="510" width="160" height="50" as="geometry" />
        </mxCell>
        <mxCell id="pR8gxtkdVTreqYLZGD9T-11" value="Добавление элемента в коллекцию" style="rounded=0;whiteSpace=wrap;html=1;" vertex="1" parent="1">
          <mxGeometry x="635" y="640" width="170" height="40" as="geometry" />
        </mxCell>
        <mxCell id="pR8gxtkdVTreqYLZGD9T-21" style="edgeStyle=orthogonalEdgeStyle;rounded=0;orthogonalLoop=1;jettySize=auto;html=1;exitX=0.5;exitY=0;exitDx=0;exitDy=0;exitPerimeter=0;" edge="1" parent="1" source="pR8gxtkdVTreqYLZGD9T-14" target="pR8gxtkdVTreqYLZGD9T-18">
          <mxGeometry relative="1" as="geometry" />
        </mxCell>
        <mxCell id="pR8gxtkdVTreqYLZGD9T-14" value="" style="strokeWidth=2;html=1;shape=mxgraph.flowchart.loop_limit;whiteSpace=wrap;rotation=-180;" vertex="1" parent="1">
          <mxGeometry x="640" y="720" width="160" height="50" as="geometry" />
        </mxCell>
        <mxCell id="pR8gxtkdVTreqYLZGD9T-15" value="цикл 1" style="text;html=1;strokeColor=none;fillColor=none;align=center;verticalAlign=middle;whiteSpace=wrap;rounded=0;" vertex="1" parent="1">
          <mxGeometry x="690" y="730" width="60" height="30" as="geometry" />
        </mxCell>
        <mxCell id="pR8gxtkdVTreqYLZGD9T-22" style="edgeStyle=orthogonalEdgeStyle;rounded=0;orthogonalLoop=1;jettySize=auto;html=1;exitX=0.5;exitY=1;exitDx=0;exitDy=0;entryX=0.5;entryY=0;entryDx=0;entryDy=0;" edge="1" parent="1" source="pR8gxtkdVTreqYLZGD9T-18" target="pR8gxtkdVTreqYLZGD9T-19">
          <mxGeometry relative="1" as="geometry" />
        </mxCell>
        <mxCell id="pR8gxtkdVTreqYLZGD9T-18" value="вывод&amp;nbsp;numericValues" style="shape=parallelogram;perimeter=parallelogramPerimeter;whiteSpace=wrap;html=1;fixedSize=1;" vertex="1" parent="1">
          <mxGeometry x="645" y="820" width="150" height="50" as="geometry" />
        </mxCell>
        <mxCell id="pR8gxtkdVTreqYLZGD9T-19" value="Конец" style="rounded=1;whiteSpace=wrap;html=1;arcSize=50;" vertex="1" parent="1">
          <mxGeometry x="600" y="910" width="240" height="40" as="geometry" />
        </mxCell>
        <mxCell id="pR8gxtkdVTreqYLZGD9T-20" style="edgeStyle=orthogonalEdgeStyle;rounded=0;orthogonalLoop=1;jettySize=auto;html=1;exitX=0.5;exitY=1;exitDx=0;exitDy=0;entryX=0.5;entryY=1;entryDx=0;entryDy=0;entryPerimeter=0;" edge="1" parent="1" source="pR8gxtkdVTreqYLZGD9T-11" target="pR8gxtkdVTreqYLZGD9T-14">
          <mxGeometry relative="1" as="geometry" />
        </mxCell>
        <mxCell id="pR8gxtkdVTreqYLZGD9T-23" value="Да" style="text;html=1;align=center;verticalAlign=middle;resizable=0;points=[];autosize=1;strokeColor=none;fillColor=none;" vertex="1" parent="1">
          <mxGeometry x="690" y="558" width="40" height="30" as="geometry" />
        </mxCell>
        <mxCell id="pR8gxtkdVTreqYLZGD9T-24" value="Нет" style="text;html=1;align=center;verticalAlign=middle;resizable=0;points=[];autosize=1;strokeColor=none;fillColor=none;" vertex="1" parent="1">
          <mxGeometry x="795" y="510" width="40" height="30" as="geometry" />
        </mxCell>
      </root>
    </mxGraphModel>
  </diagram>
</mxfile>
